<svg xmlns="http://www.w3.org/2000/svg" viewBox="0 0 960 960">
  <style>
    #bg   { fill: #131313 }
    #icon { fill: #d4d4d4 }
    @media (prefers-color-scheme: light) {
      #bg   { fill: #f0f0f0 }
      #icon { fill: #1a1a1a }
    }
  </style>
  <rect id="bg" width="960" height="960" rx="150"/>
  <g id="icon" transform="translate(70 70) scale(.854)">
    <path d="m628.833 459.92 67.596-67.596c48.836 19.389 103.95 18.183 152.007-3.614 11.799-5.353 14.622-20.844 5.46-30.006L733.52 238.329c-14.625-14.625-14.625-38.338 0-52.963L853.771 65.114c9.221-9.222 6.385-24.827-5.497-30.203-71.512-32.357-158.606-19.148-217.389 39.634-55.213 55.212-70.079 135.975-44.618 204.958l-68.926 68.926zM499.665 366.106l-93.414-93.414L294.76 384.184l93.414 93.414 111.49 111.491 341.527 341.527a24.9 24.9 0 0 0 17.662 7.316 24.9 24.9 0 0 0 17.662-7.316l76.166-76.166c9.755-9.756 9.755-25.57 0-35.324L611.155 477.598z"/>
    <path d="m904.345 127.995-99.869 99.869c-7.984 7.984-7.984 20.93 0 28.914l76.972 76.972c8.594 8.593 22.826 7.907 30.371-1.619 45.178-57.037 53.729-133.579 25.659-198.004-5.728-13.146-22.995-16.272-33.133-6.132M139.613 601.295 259.988 721.67c14.625 14.625 14.625 38.338 0 52.963L139.737 894.885c-9.221 9.221-6.385 24.828 5.497 30.203 71.512 32.355 158.606 19.148 217.39-39.635 55.014-55.014 69.968-135.395 44.888-204.213l74.476-74.475-111.489-111.49-72.694 72.693c-49.015-19.688-104.434-18.584-152.729 3.322-11.802 5.351-14.624 20.845-5.463 30.005"/>
    <path d="M81.69 629.866c-45.177 57.037-53.728 133.58-25.659 198.004 5.727 13.146 22.994 16.271 33.133 6.133l99.869-99.869c7.984-7.984 7.984-20.93 0-28.914l-76.972-76.971c-8.593-8.594-22.826-7.909-30.371 1.617"/>
    <path d="M138.849 461.443c11.956 11.956 31.339 11.956 43.295 0l5.772-5.772c11.956-11.955 11.956-31.339 0-43.294l-11.545-11.545 22.731-22.73L92.309 271.308l-22.73 22.73-11.545-11.545c-11.956-11.955-31.339-11.955-43.295 0l-5.772 5.773c-11.956 11.956-11.956 31.339 0 43.294z"/>
    <path d="M304.036 65.967 409.493 171.424c121.583-81.009 189.546-13.059 96.078-106.526C440.93.256 359.305 30.842 304.036 65.967"/>
    <path d="M271.62 68.906c-5.978-5.978-13.812-8.967-21.647-8.967s-15.67 2.989-21.647 8.967L98.441 198.79c-11.956 11.955-11.956 31.339 0 43.295l11.545 11.545 106.793 106.793 11.545 11.545c5.978 5.978 13.812 8.967 21.647 8.967 1.894 0 3.788-.179 5.655-.528a30.4 30.4 0 0 0 12.352-5.324 31 31 0 0 0 3.64-3.113l5.462-5.462 111.49-111.491 8.838-8.838 4.094-4.093a30.8 30.8 0 0 0 4.218-5.275c7.507-11.836 6.105-27.696-4.218-38.02l-12.571-12.571L283.044 80.33z"/>
  </g>
</svg>
